<?xml version="1.0" encoding="UTF-8" standalone="no"?>
<!DOCTYPE svg PUBLIC "-//W3C//DTD SVG 1.1//EN" "http://www.w3.org/Graphics/SVG/1.1/DTD/svg11.dtd">
<svg width="100%" height="100%" viewBox="0 0 4800 4800" version="1.1" xmlns="http://www.w3.org/2000/svg" xmlns:xlink="http://www.w3.org/1999/xlink" xml:space="preserve" xmlns:serif="http://www.serif.com/" style="fill-rule:evenodd;clip-rule:evenodd;stroke-linecap:round;stroke-linejoin:round;stroke-miterlimit:1.5;">
    <g id="amore-logo-red" serif:id="amore logo red">
        <g>
            <g id="Layer1">
                <path d="M2248.07,1009.09C2274.75,1039.56 2271.68,1085.96 2241.21,1112.64C2210.75,1139.33 2164.35,1136.26 2137.66,1105.79C2117.44,1082.7 2072.74,1033.6 2052.11,1012.51C1793.6,748.298 1504.48,642.546 1236.59,653.132C838.585,668.859 489.809,939.771 368.943,1312.34C246.803,1688.83 344.558,2026.1 564.494,2377.86C795.236,2746.9 1158.18,3130.13 1557.05,3583.34C1698.44,3743.99 1887.37,3931.68 2028.94,4044.7C2060.59,4069.97 2065.77,4116.18 2040.51,4147.84C2015.24,4179.48 1969.02,4184.67 1937.37,4159.4C1790.29,4041.97 1593.77,3847.21 1446.87,3680.3C1041.91,3220.17 674.32,2830.35 440.052,2455.67C194.976,2063.7 93.24,1686.58 229.341,1267.05C368.827,837.088 771.477,524.633 1230.8,506.482C1534.47,494.482 1863.96,610.362 2157.01,909.873C2178.96,932.309 2226.55,984.529 2248.07,1009.09Z" style="fill:rgb(217,28,38);"/>
            </g>
            <g id="Layer3">
                <path d="M2376.2,1134.44C2345.32,1160.66 2298.98,1156.88 2272.76,1126.01C2246.55,1095.14 2250.33,1048.79 2281.2,1022.57C2320.71,989.023 2386.05,930.408 2416.25,905.499C2586.81,764.827 2631.22,742.623 2786.21,636.225C2819.6,613.303 2865.32,621.803 2888.24,655.193C2911.16,688.583 2902.66,734.301 2869.27,757.222C2718.66,860.616 2675.38,882.022 2509.63,1018.72C2479.78,1043.34 2415.24,1101.29 2376.2,1134.44Z" style="fill:rgb(217,28,38);"/>
                <path d="M3421.47,663.067C3382.18,653.217 3358.28,613.326 3368.14,574.042C3377.99,534.757 3417.88,510.86 3457.16,520.71C3694.76,580.285 3739.01,593.029 3953.37,734.066C3987.21,756.327 3996.6,801.869 3974.34,835.703C3952.08,869.537 3906.54,878.933 3872.7,856.672C3677.84,728.461 3637.46,717.224 3421.47,663.067Z" style="fill:rgb(217,28,38);"/>
                <path d="M4203.52,1311.45C4195.17,1271.82 4220.58,1232.87 4260.21,1224.52C4299.84,1216.18 4338.79,1241.58 4347.13,1281.21C4380.23,1438.42 4380.06,1436.02 4398.35,1594.62C4402.99,1634.86 4374.1,1671.29 4333.87,1675.93C4293.63,1680.57 4257.2,1651.68 4252.56,1611.44C4235.04,1459.63 4235.2,1461.93 4203.52,1311.45Z" style="fill:rgb(217,28,38);"/>
                <path d="M4135.21,2157.46C4154.95,2122.1 4199.69,2109.41 4235.06,2129.15C4270.42,2148.89 4283.1,2193.63 4263.36,2229C4136.25,2456.71 4137.04,2455.53 3982.75,2657.28C3958.15,2689.45 3912.06,2695.6 3879.89,2671C3847.71,2646.39 3841.57,2600.3 3866.17,2568.13C4014.11,2374.68 4013.33,2375.8 4135.21,2157.46Z" style="fill:rgb(217,28,38);"/>
                <path d="M3193.46,2273.02L3193.46,3223.06" style="fill:none;stroke:rgb(217,28,38);stroke-width:146.67px;"/>
                <path d="M2524.84,2813.84L2919.54,3361.4" style="fill:none;stroke:rgb(217,28,38);stroke-width:146.67px;"/>
                <path d="M3434.84,1804.03L3924.46,1225.13" style="fill:none;stroke:rgb(217,28,38);stroke-width:146.67px;"/>
                <path d="M3434.84,2193.23L3736.72,2560.78" style="fill:none;stroke:rgb(217,28,38);stroke-width:146.67px;"/>
                <path d="M3500.42,1965.02L3984.6,1951.52" style="fill:none;stroke:rgb(217,28,38);stroke-width:146.67px;"/>
                <path d="M3502.59,3009.2C3527.67,2977.4 3573.85,2971.93 3605.65,2997.01C3637.46,3022.08 3642.92,3068.26 3617.85,3100.07C3523.48,3219.76 3523,3215.58 3420.45,3329.61C3393.37,3359.72 3346.93,3362.19 3316.82,3335.11C3286.7,3308.02 3284.24,3261.59 3311.32,3231.47C3410.65,3121.02 3411.19,3125.14 3502.59,3009.2Z" style="fill:rgb(217,28,38);"/>
                <path d="M2911.13,3707.39C2939.44,3678.43 2985.94,3677.9 3014.9,3706.21C3043.86,3734.52 3044.39,3781.02 3016.08,3809.98C2781.88,4049.55 2782.44,4047.87 2648.39,4165.75C2617.98,4192.49 2571.57,4189.52 2544.83,4159.1C2518.08,4128.69 2521.06,4082.28 2551.47,4055.54C2682.62,3940.21 2681.99,3941.78 2911.13,3707.39Z" style="fill:rgb(217,28,38);"/>
            </g>
            <g id="Layer4">
                <path d="M2281.03,1659.67C2284.5,2430.6 2291.76,2402.97 2291.76,2402.97" style="fill:none;stroke:rgb(217,28,38);stroke-width:146.67px;"/>
                <path d="M2291.76,2963.95L2291.76,3629.77C2291.76,3735.52 2293.82,3888.07 2293.82,3888.07" style="fill:none;stroke:rgb(217,28,38);stroke-width:146.67px;"/>
                <path d="M2511.55,2504.01L2969.3,2172.41" style="fill:none;stroke:rgb(217,28,38);stroke-width:146.67px;"/>
                <path d="M2573.11,1406.68L3008.73,1761.87" style="fill:none;stroke:rgb(217,28,38);stroke-width:146.67px;"/>
                <path d="M3177.19,912.735L3193.46,1659.67" style="fill:none;stroke:rgb(217,28,38);stroke-width:146.67px;"/>
            </g>
        </g>
        <g>
            <g transform="matrix(0.935739,0,0,1.04565,177.206,-29.8478)">
                <g id="Layer2">
                    <ellipse cx="2266.68" cy="1326.69" rx="275.344" ry="255.036" style="fill:none;stroke:rgb(217,28,38);stroke-width:158.7px;"/>
                </g>
            </g>
            <g transform="matrix(0.935739,0,0,1.04565,188.025,1279.42)">
                <g id="Layer21" serif:id="Layer2">
                    <ellipse cx="2266.68" cy="1326.69" rx="275.344" ry="255.036" style="fill:none;stroke:rgb(217,28,38);stroke-width:158.7px;"/>
                </g>
            </g>
            <g transform="matrix(0.935739,0,0,1.04565,172.793,2805.62)">
                <g id="Layer22" serif:id="Layer2">
                    <ellipse cx="2266.68" cy="1326.69" rx="275.344" ry="255.036" style="fill:none;stroke:rgb(217,28,38);stroke-width:158.7px;"/>
                </g>
            </g>
            <g transform="matrix(0.935739,0,0,1.04565,1056.17,2161.36)">
                <g id="Layer23" serif:id="Layer2">
                    <ellipse cx="2266.68" cy="1326.69" rx="275.344" ry="255.036" style="fill:none;stroke:rgb(217,28,38);stroke-width:158.7px;"/>
                </g>
            </g>
            <g id="Layer24" serif:id="Layer2" transform="matrix(0.925341,0,0,0.925341,976.561,-526.851)">
                <g transform="matrix(1.01124,0,0,1.13002,54.9144,-240.852)">
                    <ellipse cx="2266.68" cy="1326.69" rx="275.344" ry="255.036" style="fill:none;stroke:rgb(217,28,38);stroke-width:158.7px;"/>
                </g>
                <g transform="matrix(1.01124,0,0,1.13002,1122.55,182.848)">
                    <ellipse cx="2266.68" cy="1326.69" rx="275.344" ry="255.036" style="fill:none;stroke:rgb(217,28,38);stroke-width:158.7px;"/>
                </g>
                <g transform="matrix(1.01124,0,0,1.13002,1280.99,1172.41)">
                    <ellipse cx="2266.68" cy="1326.69" rx="275.344" ry="255.036" style="fill:none;stroke:rgb(217,28,38);stroke-width:158.7px;"/>
                </g>
                <g transform="matrix(1.01124,0,0,1.13002,745.116,2159.22)">
                    <ellipse cx="2266.68" cy="1326.69" rx="275.344" ry="255.036" style="fill:none;stroke:rgb(217,28,38);stroke-width:158.7px;"/>
                </g>
                <g transform="matrix(1.01124,0,0,1.13002,121.178,1172.41)">
                    <ellipse cx="2266.68" cy="1326.69" rx="275.344" ry="255.036" style="fill:none;stroke:rgb(217,28,38);stroke-width:158.7px;"/>
                </g>
            </g>
        </g>
    </g>
</svg>
