<?xml version="1.0" encoding="UTF-8" standalone="no"?>
<!DOCTYPE svg PUBLIC "-//W3C//DTD SVG 1.1//EN" "http://www.w3.org/Graphics/SVG/1.1/DTD/svg11.dtd">
<svg width="576.00" height="576.00" viewBox="0.00 0.00 2400.00 2400.00" xmlns="http://www.w3.org/2000/svg" xmlns:xlink="http://www.w3.org/1999/xlink">
<g stroke-linecap="round" id="Layer_1">
<path d="M1111.24,628.23 C1104.72,620.91 1088.98,603.22 1079.77,592.85 C1062.60,573.47 1043.33,552.99 1029.81,540.52 C1022.92,534.45 1008.80,522.79 1001.57,517.20 C991.47,509.74 980.57,502.52 973.84,498.27 C967.01,494.15 953.07,486.27 945.95,482.52 C931.52,475.25 905.04,463.97 885.85,456.85 C870.75,451.58 841.29,442.35 826.94,438.39 C819.89,436.63 808.35,433.79 796.56,431.47 C788.12,429.97 771.51,427.47 763.32,426.48 C755.22,425.66 739.26,424.54 731.41,424.24 C716.22,423.98 685.69,425.11 671.04,426.46 C663.78,427.25 649.33,429.14 641.66,430.69 C633.92,432.35 618.62,436.11 611.05,438.20 C603.54,440.43 588.68,445.30 581.33,447.95 C566.73,453.53 537.83,466.70 523.55,474.28 C513.25,479.98 503.27,486.42 496.86,490.59 C484.03,499.45 458.37,518.71 445.55,529.10 C439.27,534.43 427.14,545.30 421.29,550.84 C415.58,556.45 404.58,567.87 399.29,573.69 C391.93,582.11 384.14,592.24 379.33,598.82 C374.65,605.49 365.72,619.09 361.47,626.03 C353.50,639.63 338.84,668.97 332.38,683.20 C329.36,690.26 323.71,704.29 321.09,711.25 C319.60,715.26 313.72,734.99 311.57,743.08 C309.58,751.15 306.10,767.27 304.60,775.31 C302.03,791.28 297.79,821.88 296.09,836.49 C295.17,845.21 293.87,881.61 293.83,896.13 C293.94,903.30 294.56,918.57 295.09,926.72 C297.35,953.23 299.20,967.15 303.32,991.00 C306.27,1006.63 312.77,1039.32 316.31,1056.37 C320.28,1073.21 329.89,1107.95 333.74,1119.65 C337.62,1130.87 340.09,1137.21 344.94,1148.30 C348.18,1155.35 354.96,1169.02 358.49,1175.63 C365.74,1188.57 381.79,1212.63 390.71,1225.23 C400.70,1238.80 420.92,1265.69 431.16,1279.01 C446.96,1298.59 480.74,1339.87 498.73,1361.58 C519.95,1386.64 566.94,1441.68 592.71,1471.65 C614.14,1496.22 656.21,1544.31 676.84,1567.83 C699.30,1593.37 745.90,1646.29 770.03,1673.67 C792.98,1699.44 836.64,1748.08 857.35,1770.96 C866.87,1781.31 885.35,1801.31 894.31,1810.94 C909.33,1826.74 940.77,1859.13 957.18,1875.72 C971.29,1889.36 994.37,1910.22 1004.87,1919.42 C1019.32,1932.02 1034.98,1945.66 1036.18,1946.71" fill="none" stroke="rgb(184, 50, 40)" stroke-width="62.50" stroke-opacity="1.00" stroke-linejoin="miter"/>
</g>
<g stroke-linecap="round" id="Layer_3">
<path d="M1411.12,566.70 Q1411.12,566.70 1275.79,678.07" fill="none" stroke="rgb(212, 78, 68)" stroke-width="62.50" stroke-opacity="1.00" stroke-linejoin="round"/>
<path d="M1642.31,524.41 Q1642.31,524.41 1811.48,582.21" fill="none" stroke="rgb(217, 87, 74)" stroke-width="62.50" stroke-opacity="1.00" stroke-linejoin="round"/>
<path d="M1842.98,702.41 Q1842.98,702.41 1690.99,859.87" fill="none" stroke="rgb(218, 88, 75)" stroke-width="62.50" stroke-opacity="1.00" stroke-linejoin="round"/>
<path d="M1489.72,1040.61 Q1489.72,1040.61 1280.23,1226.83" fill="none" stroke="rgb(216, 86, 74)" stroke-width="62.50" stroke-opacity="1.00" stroke-linejoin="round"/>
<path d="M1277.49,811.95 Q1277.49,811.95 1444.53,894.10" fill="none" stroke="rgb(218, 88, 75)" stroke-width="62.50" stroke-opacity="1.00" stroke-linejoin="round"/>
<path d="M1975.79,742.12 Q1975.79,742.12 2000.44,846.18" fill="none" stroke="rgb(217, 87, 75)" stroke-width="62.50" stroke-opacity="1.00" stroke-linejoin="round"/>
<path d="M1968.95,1121.40 Q1968.95,1121.40 1927.87,1187.12" fill="none" stroke="rgb(217, 88, 77)" stroke-width="62.50" stroke-opacity="1.00" stroke-linejoin="round"/>
<path d="M1770.41,1393.87 Q1770.41,1393.87 1641.70,1523.95" fill="none" stroke="rgb(217, 88, 74)" stroke-width="62.50" stroke-opacity="1.00" stroke-linejoin="round"/>
<path d="M1452.75,1706.06 Q1452.75,1706.06 1278.86,1881.32" fill="none" stroke="rgb(217, 87, 76)" stroke-width="62.50" stroke-opacity="1.00" stroke-linejoin="round"/>
<path d="M1174.80,1445.90 Q1174.80,1445.90 1172.06,1836.13" fill="none" stroke="rgb(218, 86, 76)" stroke-width="62.50" stroke-opacity="1.00" stroke-linejoin="round"/>
<path d="M1280.23,1308.98 Q1280.23,1308.98 1723.86,1300.77" fill="none" stroke="rgb(217, 88, 77)" stroke-width="62.50" stroke-opacity="1.00" stroke-linejoin="round"/>
<path d="M1640.33,1047.46 Q1655.13,1063.21 1764.93,1185.75" fill="none" stroke="rgb(218, 87, 75)" stroke-width="62.50" stroke-opacity="1.00" stroke-linejoin="round"/>
<path d="M1172.06,902.32 Q1172.06,902.32 1170.69,1176.17" fill="none" stroke="rgb(217, 87, 76)" stroke-width="62.50" stroke-opacity="1.00" stroke-linejoin="round"/>
<path d="M1278.39,1394.18 Q1278.39,1394.18 1438.15,1531.85" fill="none" stroke="rgb(217, 80, 72)" stroke-width="62.50" stroke-opacity="1.00" stroke-linejoin="round"/>
</g>
<g stroke-linecap="round" id="Layer_2">
<path d="M1165.95,653.16 C1172.93,653.29 1189.29,655.96 1197.01,658.21 C1203.70,660.20 1218.88,667.49 1225.61,671.82 C1231.98,675.94 1243.00,685.66 1247.95,691.08 C1253.37,697.07 1260.67,707.50 1264.46,714.68 C1267.89,721.21 1273.20,734.68 1274.89,741.70 C1276.58,748.76 1278.52,764.14 1278.53,770.51 C1278.52,776.88 1276.58,792.20 1274.89,799.21 C1273.12,806.49 1267.24,820.95 1263.31,827.98 C1258.99,835.66 1249.62,847.44 1244.04,852.92 C1237.76,859.04 1226.47,867.26 1218.76,871.33 C1211.86,874.94 1197.91,880.16 1189.39,881.84 C1181.59,883.35 1165.95,884.35 1158.16,883.61 C1150.31,882.83 1133.99,879.09 1127.50,876.47 C1120.04,873.41 1105.51,865.28 1099.78,860.95 C1094.82,857.18 1083.80,846.30 1079.24,840.69 C1074.72,835.10 1067.28,822.71 1064.19,816.00 C1060.81,808.62 1056.97,796.44 1055.51,788.45 C1054.20,781.18 1053.18,766.75 1053.68,759.58 C1054.20,752.36 1056.99,737.11 1058.88,731.17 C1061.09,724.32 1068.32,709.30 1072.68,702.50 C1076.49,696.62 1087.71,684.17 1093.69,679.01 C1099.64,673.92 1113.02,665.73 1120.26,662.48 C1128.20,658.94 1142.61,655.18 1150.33,654.16 C1154.26,653.66 1162.83,653.12 1165.95,653.16 Z" fill="none" stroke="rgb(211, 87, 77)" stroke-width="62.74" stroke-opacity="1.00" stroke-linejoin="round"/>
</g>
<g stroke-linecap="round" id="Layer_2_Copy">
<path d="M1526.95,382.16 C1533.93,382.29 1550.29,384.96 1558.01,387.21 C1564.70,389.20 1579.88,396.49 1586.61,400.82 C1592.98,404.94 1604.00,414.66 1608.95,420.08 C1614.37,426.07 1621.67,436.50 1625.46,443.68 C1628.89,450.21 1634.20,463.68 1635.89,470.70 C1637.58,477.76 1639.52,493.14 1639.53,499.51 C1639.52,505.88 1637.58,521.20 1635.89,528.21 C1634.12,535.49 1628.24,549.95 1624.31,556.98 C1619.99,564.66 1610.62,576.44 1605.04,581.92 C1598.76,588.04 1587.47,596.26 1579.76,600.33 C1572.86,603.94 1558.91,609.16 1550.39,610.84 C1542.59,612.35 1526.95,613.35 1519.16,612.61 C1511.31,611.83 1494.99,608.09 1488.50,605.47 C1481.04,602.41 1466.51,594.28 1460.78,589.95 C1455.82,586.18 1444.80,575.30 1440.24,569.69 C1435.72,564.10 1428.28,551.71 1425.19,545.00 C1421.81,537.62 1417.97,525.44 1416.51,517.45 C1415.20,510.18 1414.18,495.75 1414.68,488.58 C1415.20,481.36 1417.99,466.11 1419.88,460.17 C1422.09,453.32 1429.32,438.30 1433.68,431.50 C1437.49,425.62 1448.71,413.17 1454.69,408.01 C1460.64,402.92 1474.02,394.73 1481.26,391.48 C1489.20,387.94 1503.61,384.18 1511.33,383.16 C1515.26,382.66 1523.83,382.12 1526.95,382.16 Z" fill="none" stroke="rgb(218, 85, 75)" stroke-width="62.74" stroke-opacity="1.00" stroke-linejoin="round"/>
</g>
<g stroke-linecap="round" id="Layer_2_Copy_2">
<path d="M1938.95,518.16 C1945.93,518.29 1962.29,520.96 1970.01,523.21 C1976.70,525.20 1991.88,532.49 1998.61,536.82 C2004.98,540.94 2016.00,550.66 2020.95,556.08 C2026.37,562.07 2033.67,572.50 2037.46,579.68 C2040.89,586.21 2046.20,599.68 2047.89,606.70 C2049.58,613.76 2051.52,629.14 2051.53,635.51 C2051.52,641.88 2049.58,657.20 2047.89,664.21 C2046.12,671.49 2040.24,685.95 2036.31,692.98 C2031.99,700.66 2022.62,712.44 2017.04,717.92 C2010.76,724.04 1999.47,732.26 1991.76,736.33 C1984.86,739.94 1970.91,745.16 1962.39,746.84 C1954.59,748.35 1938.95,749.35 1931.16,748.61 C1923.31,747.83 1906.99,744.09 1900.50,741.47 C1893.04,738.41 1878.51,730.28 1872.78,725.95 C1867.82,722.18 1856.80,711.30 1852.24,705.69 C1847.72,700.10 1840.28,687.71 1837.19,681.00 C1833.81,673.62 1829.97,661.44 1828.51,653.45 C1827.20,646.18 1826.18,631.75 1826.68,624.58 C1827.20,617.36 1829.99,602.11 1831.88,596.17 C1834.09,589.32 1841.32,574.30 1845.68,567.50 C1849.49,561.62 1860.71,549.17 1866.69,544.01 C1872.64,538.92 1886.02,530.73 1893.26,527.48 C1901.20,523.94 1915.61,520.18 1923.33,519.16 C1927.26,518.66 1935.83,518.12 1938.95,518.16 Z" fill="none" stroke="rgb(218, 87, 74)" stroke-width="62.74" stroke-opacity="1.00" stroke-linejoin="round"/>
</g>
<g stroke-linecap="round" id="Layer_2_Copy_3">
<path d="M2023.95,869.16 C2030.93,869.29 2047.29,871.96 2055.01,874.21 C2061.70,876.20 2076.88,883.49 2083.61,887.82 C2089.98,891.94 2101.00,901.66 2105.95,907.08 C2111.37,913.07 2118.67,923.50 2122.46,930.68 C2125.89,937.21 2131.20,950.68 2132.89,957.70 C2134.58,964.76 2136.52,980.14 2136.53,986.51 C2136.52,992.88 2134.58,1008.20 2132.89,1015.21 C2131.12,1022.49 2125.24,1036.95 2121.31,1043.98 C2116.99,1051.66 2107.62,1063.44 2102.04,1068.92 C2095.76,1075.04 2084.47,1083.26 2076.76,1087.33 C2069.86,1090.94 2055.91,1096.16 2047.39,1097.84 C2039.59,1099.35 2023.95,1100.35 2016.16,1099.61 C2008.31,1098.83 1991.99,1095.09 1985.50,1092.47 C1978.04,1089.41 1963.51,1081.28 1957.78,1076.95 C1952.82,1073.18 1941.80,1062.30 1937.24,1056.69 C1932.72,1051.10 1925.28,1038.71 1922.19,1032.00 C1918.81,1024.62 1914.97,1012.44 1913.51,1004.45 C1912.20,997.18 1911.18,982.75 1911.68,975.58 C1912.20,968.36 1914.99,953.11 1916.88,947.17 C1919.09,940.32 1926.32,925.30 1930.68,918.50 C1934.49,912.62 1945.71,900.17 1951.69,895.01 C1957.64,889.92 1971.02,881.73 1978.26,878.48 C1986.20,874.94 2000.61,871.18 2008.33,870.16 C2012.26,869.66 2020.83,869.12 2023.95,869.16 Z" fill="none" stroke="rgb(217, 88, 76)" stroke-width="62.74" stroke-opacity="1.00" stroke-linejoin="round"/>
</g>
<g stroke-linecap="round" id="Layer_2_Copy_4">
<path d="M1854.95,1181.16 C1861.93,1181.29 1878.29,1183.96 1886.01,1186.21 C1892.70,1188.20 1907.88,1195.49 1914.61,1199.82 C1920.98,1203.94 1932.00,1213.66 1936.95,1219.08 C1942.37,1225.07 1949.67,1235.50 1953.46,1242.68 C1956.89,1249.21 1962.20,1262.68 1963.89,1269.70 C1965.58,1276.76 1967.52,1292.14 1967.53,1298.51 C1967.52,1304.88 1965.58,1320.20 1963.89,1327.21 C1962.12,1334.49 1956.24,1348.95 1952.31,1355.98 C1947.99,1363.66 1938.62,1375.44 1933.04,1380.92 C1926.76,1387.04 1915.47,1395.26 1907.76,1399.33 C1900.86,1402.94 1886.91,1408.16 1878.39,1409.84 C1870.59,1411.35 1854.95,1412.35 1847.16,1411.61 C1839.31,1410.83 1822.99,1407.09 1816.50,1404.47 C1809.04,1401.41 1794.51,1393.28 1788.78,1388.95 C1783.82,1385.18 1772.80,1374.30 1768.24,1368.69 C1763.72,1363.10 1756.28,1350.71 1753.19,1344.00 C1749.81,1336.62 1745.97,1324.44 1744.51,1316.45 C1743.20,1309.18 1742.18,1294.75 1742.68,1287.58 C1743.20,1280.36 1745.99,1265.11 1747.88,1259.17 C1750.09,1252.32 1757.32,1237.30 1761.68,1230.50 C1765.49,1224.62 1776.71,1212.17 1782.69,1207.01 C1788.64,1201.92 1802.02,1193.73 1809.26,1190.48 C1817.20,1186.94 1831.61,1183.18 1839.33,1182.16 C1843.26,1181.66 1851.83,1181.12 1854.95,1181.16 Z" fill="none" stroke="rgb(216, 87, 75)" stroke-width="62.74" stroke-opacity="1.00" stroke-linejoin="round"/>
</g>
<g stroke-linecap="round" id="Layer_2_Copy_5">
<path d="M1542.95,1497.16 C1549.93,1497.29 1566.29,1499.96 1574.01,1502.21 C1580.70,1504.20 1595.88,1511.49 1602.61,1515.82 C1608.98,1519.94 1620.00,1529.66 1624.95,1535.08 C1630.37,1541.07 1637.67,1551.50 1641.46,1558.68 C1644.89,1565.21 1650.20,1578.68 1651.89,1585.70 C1653.58,1592.76 1655.52,1608.14 1655.53,1614.51 C1655.52,1620.88 1653.58,1636.20 1651.89,1643.21 C1650.12,1650.49 1644.24,1664.95 1640.31,1671.98 C1635.99,1679.66 1626.62,1691.44 1621.04,1696.92 C1614.76,1703.04 1603.47,1711.26 1595.76,1715.33 C1588.86,1718.94 1574.91,1724.16 1566.39,1725.84 C1558.59,1727.35 1542.95,1728.35 1535.16,1727.61 C1527.31,1726.83 1510.99,1723.09 1504.50,1720.47 C1497.04,1717.41 1482.51,1709.28 1476.78,1704.95 C1471.82,1701.18 1460.80,1690.30 1456.24,1684.69 C1451.72,1679.10 1444.28,1666.71 1441.19,1660.00 C1437.81,1652.62 1433.97,1640.44 1432.51,1632.45 C1431.20,1625.18 1430.18,1610.75 1430.68,1603.58 C1431.20,1596.36 1433.99,1581.11 1435.88,1575.17 C1438.09,1568.32 1445.32,1553.30 1449.68,1546.50 C1453.49,1540.62 1464.71,1528.17 1470.69,1523.01 C1476.64,1517.92 1490.02,1509.73 1497.26,1506.48 C1505.20,1502.94 1519.61,1499.18 1527.33,1498.16 C1531.26,1497.66 1539.83,1497.12 1542.95,1497.16 Z" fill="none" stroke="rgb(217, 88, 75)" stroke-width="62.74" stroke-opacity="1.00" stroke-linejoin="round"/>
</g>
<g stroke-linecap="round" id="Layer_2_Copy_6">
<path d="M1575.95,840.16 C1582.93,840.29 1599.29,842.96 1607.01,845.21 C1613.70,847.20 1628.88,854.49 1635.61,858.82 C1641.98,862.94 1653.00,872.66 1657.95,878.08 C1663.37,884.07 1670.67,894.50 1674.46,901.68 C1677.89,908.21 1683.20,921.68 1684.89,928.70 C1686.58,935.76 1688.52,951.14 1688.53,957.51 C1688.52,963.88 1686.58,979.20 1684.89,986.21 C1683.12,993.49 1677.24,1007.95 1673.31,1014.98 C1668.99,1022.66 1659.62,1034.44 1654.04,1039.92 C1647.76,1046.04 1636.47,1054.26 1628.76,1058.33 C1621.86,1061.94 1607.91,1067.16 1599.39,1068.84 C1591.59,1070.35 1575.95,1071.35 1568.16,1070.61 C1560.31,1069.83 1543.99,1066.09 1537.50,1063.47 C1530.04,1060.41 1515.51,1052.28 1509.78,1047.95 C1504.82,1044.18 1493.80,1033.30 1489.24,1027.69 C1484.72,1022.10 1477.28,1009.71 1474.19,1003.00 C1470.81,995.62 1466.97,983.44 1465.51,975.45 C1464.20,968.18 1463.18,953.75 1463.68,946.58 C1464.20,939.36 1466.99,924.11 1468.88,918.17 C1471.09,911.32 1478.32,896.30 1482.68,889.50 C1486.49,883.62 1497.71,871.17 1503.69,866.01 C1509.64,860.92 1523.02,852.73 1530.26,849.48 C1538.20,845.94 1552.61,842.18 1560.33,841.16 C1564.26,840.66 1572.83,840.12 1575.95,840.16 Z" fill="none" stroke="rgb(214, 82, 70)" stroke-width="62.74" stroke-opacity="1.00" stroke-linejoin="round"/>
</g>
<g stroke-linecap="round" id="Layer_2_Copy_7">
<path d="M1164.95,1202.16 C1171.93,1202.29 1188.29,1204.96 1196.01,1207.21 C1202.70,1209.20 1217.88,1216.49 1224.61,1220.82 C1230.98,1224.94 1242.00,1234.66 1246.95,1240.08 C1252.37,1246.07 1259.67,1256.50 1263.46,1263.68 C1266.89,1270.21 1272.20,1283.68 1273.89,1290.70 C1275.58,1297.76 1277.52,1313.14 1277.53,1319.51 C1277.52,1325.88 1275.58,1341.20 1273.89,1348.21 C1272.12,1355.49 1266.24,1369.95 1262.31,1376.98 C1257.99,1384.66 1248.62,1396.44 1243.04,1401.92 C1236.76,1408.04 1225.47,1416.26 1217.76,1420.33 C1210.86,1423.94 1196.91,1429.16 1188.39,1430.84 C1180.59,1432.35 1164.95,1433.35 1157.16,1432.61 C1149.31,1431.83 1132.99,1428.09 1126.50,1425.47 C1119.04,1422.41 1104.51,1414.28 1098.78,1409.95 C1093.82,1406.18 1082.80,1395.30 1078.24,1389.69 C1073.72,1384.10 1066.28,1371.71 1063.19,1365.00 C1059.81,1357.62 1055.97,1345.44 1054.51,1337.45 C1053.20,1330.18 1052.18,1315.75 1052.68,1308.58 C1053.20,1301.36 1055.99,1286.11 1057.88,1280.17 C1060.09,1273.32 1067.32,1258.30 1071.68,1251.50 C1075.49,1245.62 1086.71,1233.17 1092.69,1228.01 C1098.64,1222.92 1112.02,1214.73 1119.26,1211.48 C1127.20,1207.94 1141.61,1204.18 1149.33,1203.16 C1153.26,1202.66 1161.83,1202.12 1164.95,1202.16 Z" fill="none" stroke="rgb(216, 87, 75)" stroke-width="62.74" stroke-opacity="1.00" stroke-linejoin="round"/>
</g>
<g stroke-linecap="round" id="Layer_2_Copy_8">
<path d="M1164.95,1864.16 C1171.93,1864.29 1188.29,1866.96 1196.01,1869.21 C1202.70,1871.20 1217.88,1878.49 1224.61,1882.82 C1230.98,1886.94 1242.00,1896.66 1246.95,1902.08 C1252.37,1908.07 1259.67,1918.50 1263.46,1925.68 C1266.89,1932.21 1272.20,1945.68 1273.89,1952.70 C1275.58,1959.76 1277.52,1975.14 1277.53,1981.51 C1277.52,1987.88 1275.58,2003.20 1273.89,2010.21 C1272.12,2017.49 1266.24,2031.95 1262.31,2038.98 C1257.99,2046.66 1248.62,2058.44 1243.04,2063.92 C1236.76,2070.04 1225.47,2078.26 1217.76,2082.33 C1210.86,2085.94 1196.91,2091.16 1188.39,2092.84 C1180.59,2094.35 1164.95,2095.35 1157.16,2094.61 C1149.31,2093.83 1132.99,2090.09 1126.50,2087.47 C1119.04,2084.41 1104.51,2076.28 1098.78,2071.95 C1093.82,2068.18 1082.80,2057.30 1078.24,2051.69 C1073.72,2046.10 1066.28,2033.71 1063.19,2027.00 C1059.81,2019.62 1055.97,2007.44 1054.51,1999.45 C1053.20,1992.18 1052.18,1977.75 1052.68,1970.58 C1053.20,1963.36 1055.99,1948.11 1057.88,1942.17 C1060.09,1935.32 1067.32,1920.30 1071.68,1913.50 C1075.49,1907.62 1086.71,1895.17 1092.69,1890.01 C1098.64,1884.92 1112.02,1876.73 1119.26,1873.48 C1127.20,1869.94 1141.61,1866.18 1149.33,1865.16 C1153.26,1864.66 1161.83,1864.12 1164.95,1864.16 Z" fill="none" stroke="rgb(217, 88, 75)" stroke-width="62.74" stroke-opacity="1.00" stroke-linejoin="round"/>
</g>
</svg>
