<?xml version="1.0" encoding="UTF-8" standalone="no"?>
<!DOCTYPE svg PUBLIC "-//W3C//DTD SVG 1.1//EN" "http://www.w3.org/Graphics/SVG/1.1/DTD/svg11.dtd">
<svg width="100%" height="100%" viewBox="0 0 3508 2481" version="1.1" xmlns="http://www.w3.org/2000/svg" xmlns:xlink="http://www.w3.org/1999/xlink" xml:space="preserve" xmlns:serif="http://www.serif.com/" style="fill-rule:evenodd;clip-rule:evenodd;stroke-linecap:round;stroke-linejoin:round;stroke-miterlimit:1.5;">
    <g id="logo-red" serif:id="logo red" transform="matrix(1.04915,0,0,1.04915,-22.5562,-49.7302)">
        <g id="Layer1" transform="matrix(1,0,0,1,-2.16004,2.48941)">
            <path d="M1631.98,360.235C1638.13,371.537 1633.94,385.706 1622.64,391.856C1611.34,398.006 1597.17,393.823 1591.02,382.521C1588.3,377.522 1575.42,365.354 1556.3,349.705C1506.22,308.712 1414.35,249.881 1317.86,245.855C1215.7,241.592 1098.43,259.136 998.597,363.61C904.167,462.426 886.647,568.398 892.512,647.448C898.733,731.284 914.799,769.826 916.036,772.93C949.014,855.68 1007.68,967.382 1079.61,1039.84C1281.65,1243.38 1541.29,1440.13 1585.91,1470.99C1596.49,1478.31 1599.14,1492.84 1591.82,1503.42C1584.5,1514.01 1569.97,1516.65 1559.38,1509.34C1514.19,1478.08 1251.17,1278.85 1046.52,1072.69C970.302,995.919 907.662,877.867 872.722,790.191C871.348,786.744 852.924,744.035 846.013,650.898C839.414,561.965 858.651,442.567 964.886,331.396C1076,215.125 1206.11,194.524 1319.8,199.268C1427.24,203.751 1530.07,267.981 1585.83,313.622C1612.08,335.107 1628.24,353.37 1631.98,360.235Z" style="fill:white;"/>
        </g>
        <g transform="matrix(1,0,0,1,-2.16004,2.48941)">
            <g transform="matrix(1.45936,0,0,1.47875,-791.845,-249.908)">
                <g id="Layer2">
                    <ellipse cx="1685.93" cy="490.492" rx="67.837" ry="68.302" style="fill:none;stroke:white;stroke-width:31.74px;"/>
                </g>
            </g>
            <g transform="matrix(1.45936,0,0,1.47875,-793.517,246.672)">
                <g id="Layer21" serif:id="Layer2">
                    <ellipse cx="1685.93" cy="490.492" rx="67.837" ry="68.302" style="fill:none;stroke:white;stroke-width:31.74px;"/>
                </g>
            </g>
            <g transform="matrix(1.45936,0,0,1.47875,-790.982,822.751)">
                <g id="Layer22" serif:id="Layer2">
                    <ellipse cx="1685.93" cy="490.492" rx="67.837" ry="68.302" style="fill:none;stroke:white;stroke-width:31.74px;"/>
                </g>
            </g>
            <g transform="matrix(1.45936,0,0,1.47875,-413.255,-56.2505)">
                <g id="Layer23" serif:id="Layer2">
                    <ellipse cx="1685.93" cy="490.492" rx="67.837" ry="68.302" style="fill:none;stroke:white;stroke-width:31.74px;"/>
                </g>
            </g>
            <g transform="matrix(1.45936,0,0,1.47875,-412.072,-505.182)">
                <g id="Layer24" serif:id="Layer2">
                    <ellipse cx="1685.93" cy="490.492" rx="67.837" ry="68.302" style="fill:none;stroke:white;stroke-width:31.74px;"/>
                </g>
            </g>
            <g transform="matrix(1.45936,0,0,1.47875,-412.599,528.724)">
                <g id="Layer25" serif:id="Layer2">
                    <ellipse cx="1685.93" cy="490.492" rx="67.837" ry="68.302" style="fill:none;stroke:white;stroke-width:31.74px;"/>
                </g>
            </g>
            <g transform="matrix(1.45936,0,0,1.47875,-57.0417,-329.506)">
                <g id="Layer26" serif:id="Layer2">
                    <ellipse cx="1685.93" cy="490.492" rx="67.837" ry="68.302" style="fill:none;stroke:white;stroke-width:31.74px;"/>
                </g>
            </g>
            <g transform="matrix(1.45936,0,0,1.47875,-36.689,138.005)">
                <g id="Layer27" serif:id="Layer2">
                    <ellipse cx="1685.93" cy="490.492" rx="67.837" ry="68.302" style="fill:none;stroke:white;stroke-width:31.74px;"/>
                </g>
            </g>
        </g>
        <g transform="matrix(1,0,0,1,-2.16004,2.48941)">
            <g id="Layer3">
                <path d="M1667.58,598.452C1667.99,722.339 1668.42,721.822 1668.69,846.013" style="fill:none;stroke:white;stroke-width:46.47px;"/>
            </g>
            <g id="Layer31" serif:id="Layer3">
                <path d="M1667.58,598.452C1667.99,722.339 1668.42,721.822 1668.69,846.013" style="fill:none;stroke:white;stroke-width:46.47px;"/>
                <path d="M1668.68,1088.74C1666.09,1289.7 1666.42,1289.28 1667.01,1425.62" style="fill:none;stroke:white;stroke-width:46.47px;"/>
                <path d="M1755.32,902.616C1970.34,731.199 1969.17,732.135 1969.17,732.135" style="fill:none;stroke:white;stroke-width:46.47px;"/>
            </g>
            <g id="Layer4">
                <path d="M2046.51,785.261L2046.51,1148.99" style="fill:none;stroke:white;stroke-width:46.47px;"/>
            </g>
            <g id="Layer5">
                <path d="M2050.2,559.691L2045.46,324.526" style="fill:none;stroke:white;stroke-width:46.47px;"/>
            </g>
            <g id="Layer6">
                <path d="M2128.84,605.074L2319.93,456.883" style="fill:none;stroke:white;stroke-width:46.47px;"/>
            </g>
            <g id="Layer7">
                <path d="M2138.54,723.737L2326.88,824.562" style="fill:none;stroke:white;stroke-width:46.47px;"/>
            </g>
            <g id="Layer8">
                <path d="M1758.92,1032.97L1972.46,1180.56" style="fill:none;stroke:white;stroke-width:46.47px;"/>
            </g>
            <g id="Layer9">
                <path d="M1774.43,515.961L1949.62,612.51" style="fill:none;stroke:white;stroke-width:46.47px;"/>
            </g>
            <g id="Layer10">
                <path d="M1945.34,233.133C1823.67,269.243 1768.12,321.393 1728.83,366.126" style="fill:none;stroke:white;stroke-width:46.47px;"/>
                <path d="M2150.2,258.388C2137.49,256.694 2128.54,245 2130.24,232.289C2131.93,219.579 2143.63,210.635 2156.34,212.329C2199.52,218.085 2248.84,235.639 2326.72,294.324C2336.96,302.041 2339.01,316.621 2331.29,326.861C2323.57,337.102 2308.99,339.15 2298.75,331.433C2230.57,280.055 2188.01,263.427 2150.2,258.388Z" style="fill:white;"/>
                <path d="M2422.75,500.807C2419.24,488.474 2426.41,475.612 2438.74,472.104C2451.07,468.595 2463.93,475.76 2467.44,488.093C2508.72,633.216 2479.05,731.611 2473.03,751.838C2469.37,764.127 2456.42,771.133 2444.13,767.474C2431.84,763.814 2424.84,750.865 2428.49,738.576C2433.93,720.34 2459.97,631.645 2422.75,500.807Z" style="fill:white;"/>
                <path d="M2335.1,938.37C2342.24,927.715 2356.68,924.857 2367.34,931.992C2377.99,939.127 2380.85,953.569 2373.71,964.224C2319.74,1044.83 2196.36,1169.45 2149.45,1204.65C2139.19,1212.34 2124.62,1210.26 2116.92,1200.01C2109.22,1189.75 2111.3,1175.17 2121.56,1167.48C2166.25,1133.95 2283.68,1015.16 2335.1,938.37Z" style="fill:white;"/>
                <path d="M1953.91,1306.34C1963.38,1297.69 1978.09,1298.36 1986.74,1307.83C1995.38,1317.3 1994.71,1332.01 1985.24,1340.65C1866.55,1449.01 1792.38,1499.09 1786.64,1502.72C1775.8,1509.58 1761.44,1506.36 1754.58,1495.52C1747.72,1484.69 1750.95,1470.32 1761.78,1463.46C1767.35,1459.94 1838.99,1411.25 1953.91,1306.34Z" style="fill:white;"/>
            </g>
        </g>
        <g transform="matrix(1,0,0,1,24.5246,-0.319318)">
            <g id="Layer11">
                <g transform="matrix(258.333,0,0,258.333,2190.29,1942)">
                </g>
                <text x="1102.96px" y="1942px" style="font-family:'AvenirNext-Bold', 'Avenir Next', sans-serif;font-weight:700;font-size:258.333px;fill:white;stroke:white;stroke-width:0.95px;stroke-linecap:butt;stroke-miterlimit:2;">AMOR/e</text>
            </g>
        </g>
    </g>
</svg>
